<svg xmlns="http://www.w3.org/2000/svg" xmlns:xlink="http://www.w3.org/1999/xlink" width="110.865" height="42.578" viewBox="0 0 110.865 42.578">
  <defs>
    <linearGradient id="linear-gradient" x1="0.5" y1="-0.257" x2="0.5" y2="1.018" gradientUnits="objectBoundingBox">
      <stop offset="0" stop-color="#008ca5"/>
      <stop offset="0.285" stop-color="#4cc0ba"/>
      <stop offset="0.522" stop-color="#70c8bb"/>
      <stop offset="0.747" stop-color="#4cc0ba"/>
      <stop offset="0.973" stop-color="#008ca5"/>
    </linearGradient>
    <linearGradient id="linear-gradient-2" y1="0.5" x2="1" y2="0.5" gradientUnits="objectBoundingBox">
      <stop offset="0" stop-color="#4cc0ba"/>
      <stop offset="0.543" stop-color="#fff"/>
      <stop offset="1" stop-color="#4cc0ba"/>
    </linearGradient>
    <linearGradient id="linear-gradient-4" y1="-0.004" y2="1.244" xlink:href="#linear-gradient"/>
    <linearGradient id="linear-gradient-7" x1="0.5" y1="-0.068" x2="0.5" y2="0.948" gradientUnits="objectBoundingBox">
      <stop offset="0" stop-color="#6cc8bb"/>
      <stop offset="1" stop-color="#008ea8"/>
    </linearGradient>
    <linearGradient id="linear-gradient-10" x1="0.5" y1="-0.052" x2="0.5" y2="0.936" xlink:href="#linear-gradient-7"/>
  </defs>
  <g id="Group_2167" data-name="Group 2167" transform="translate(762.211 -4536.688)">
    <g id="Group_2165" data-name="Group 2165" transform="translate(-762.211 4536.688)">
      <g id="Group_2163" data-name="Group 2163" transform="translate(1.27 8.295)">
        <path id="Path_316" data-name="Path 316" d="M-695.056,4704.362l-14.836-14.872-3.332,3.34,14.836,14.872-13.578,13.61-16.059-16.1-3.332,3.34,14.317,14.35h10.469l15.56-15.6v-7Z" transform="translate(731.865 -4688.981)" fill="url(#linear-gradient)"/>
        <path id="Path_317" data-name="Path 317" d="M-714.72,4714.944h-10.766l-14.675-14.709,3.839-3.849,16.06,16.1,13.071-13.1-14.837-14.871,3.839-3.849,14.837,14.872,4.4-4.413v8.016Zm-10.469-.719h10.171l15.35-15.386v-5.982l-3.684,3.693-14.837-14.872-2.825,2.832,14.837,14.871-14.085,14.12-16.06-16.1-2.825,2.832Z" transform="translate(740.161 -4680.661)" fill="url(#linear-gradient-2)"/>
      </g>
      <path id="Path_318" data-name="Path 318" d="M-710.614,4718.954h-10.617l-.052-.052-14.442-14.477,3.583-3.592.126.126,15.933,15.972,13.327-13.358-14.836-14.872,3.584-3.592.126.127,14.71,14.745,4.221-4.231v7.5l-.052.052Zm-10.469-.356h10.321l15.455-15.492v-6.494l-3.865,3.874-.126-.127-14.71-14.745-3.08,3.087,14.836,14.872-13.83,13.863-16.059-16.1-3.08,3.087Z" transform="translate(737.251 -4676.557)" fill="url(#linear-gradient-2)"/>
      <g id="Group_2164" data-name="Group 2164" transform="translate(0 0)">
        <path id="Path_319" data-name="Path 319" d="M-719.281,4561.333l3.332-3.339-15.035-15.071h-9.032l-15.959,16v7l3.725-3.733,14.836,14.872,3.332-3.339-14.836-14.872,13.578-13.611Z" transform="translate(756.334 -4542.563)" fill="url(#linear-gradient-4)"/>
        <path id="Path_320" data-name="Path 320" d="M-743.291,4571.69l-14.836-14.872-4.084,4.094V4552.9l16.17-16.208h9.33l15.393,15.43-3.839,3.848-16.059-16.1-13.071,13.1,14.836,14.871Zm-14.836-15.889,14.836,14.872,2.825-2.832-14.836-14.871,14.086-14.12,16.059,16.1,2.825-2.831-14.676-14.712h-8.735l-15.749,15.787v5.982Z" transform="translate(762.211 -4536.688)" fill="url(#linear-gradient-2)"/>
      </g>
      <path id="Path_321" data-name="Path 321" d="M-740.331,4574.394l-.126-.127-14.71-14.745-3.9,3.912v-7.5l.052-.053,16.011-16.049h9.18l15.213,15.249-3.584,3.592-.126-.127-15.933-15.971-13.327,13.359,14.836,14.872Zm-14.836-15.377.126.126,14.71,14.745,3.08-3.087-14.836-14.872,13.83-13.864.126.126,15.933,15.971,3.081-3.087-14.857-14.893h-8.885l-15.855,15.893v6.5Z" transform="translate(759.251 -4539.647)" fill="url(#linear-gradient-2)"/>
    </g>
    <g id="Group_2166" data-name="Group 2166" transform="translate(-715.644 4548.428)">
      <path id="Path_322" data-name="Path 322" d="M49.388,4760.459H46.047v-16.013h9.179v2.782H49.388v4.128H54.82v2.771H49.388Z" transform="translate(-46.047 -4744.216)" fill="url(#linear-gradient-7)"/>
      <path id="Path_323" data-name="Path 323" d="M246.271,4760.459h-9.222v-16.013h9.222v2.782h-5.827v3.516h5.422v2.782h-5.422v4.129h5.827Z" transform="translate(-226.045 -4744.216)" fill="url(#linear-gradient-7)"/>
      <path id="Path_324" data-name="Path 324" d="M441.3,4760.459h-3.4v-13.187H433.56v-2.826h12.092v2.826H441.3Z" transform="translate(-411.234 -4744.216)" fill="url(#linear-gradient-7)"/>
      <path id="Path_325" data-name="Path 325" d="M681.376,4743.28a3.459,3.459,0,0,0-2.968,1.439,6.7,6.7,0,0,0-1.052,4.015q0,5.355,4.02,5.355a12.7,12.7,0,0,0,4.086-.843v2.848a11.342,11.342,0,0,1-4.4.821,6.713,6.713,0,0,1-5.345-2.12,8.972,8.972,0,0,1-1.851-6.084,9.934,9.934,0,0,1,.909-4.375,6.572,6.572,0,0,1,2.612-2.881,7.728,7.728,0,0,1,3.992-1,10.776,10.776,0,0,1,4.688,1.128l-1.1,2.761a18.075,18.075,0,0,0-1.807-.745A5.388,5.388,0,0,0,681.376,4743.28Z" transform="translate(-637.692 -4740.454)" fill="url(#linear-gradient-10)"/>
      <path id="Path_326" data-name="Path 326" d="M947.434,4760.459h-3.385v-6.912h-6.342v6.912h-3.4v-16.013h3.4v6.276h6.342v-6.276h3.385Z" transform="translate(-883.136 -4744.216)" fill="url(#linear-gradient-7)"/>
    </g>
  </g>
</svg>
